<svg xmlns="http://www.w3.org/2000/svg" viewBox="0 0 64 64" width="64" height="64">
  <circle cx="32" cy="32" r="32" fill="#FAEEDA"/>
  <g stroke="#EF9F27" stroke-width="3" stroke-linecap="round">
    <line x1="32" y1="6" x2="32" y2="13"/>
    <line x1="32" y1="51" x2="32" y2="58"/>
    <line x1="6" y1="32" x2="13" y2="32"/>
    <line x1="51" y1="32" x2="58" y2="32"/>
    <line x1="14" y1="14" x2="19" y2="19"/>
    <line x1="45" y1="45" x2="50" y2="50"/>
    <line x1="50" y1="14" x2="45" y2="19"/>
    <line x1="19" y1="45" x2="14" y2="50"/>
  </g>
  <circle cx="32" cy="32" r="15.5" fill="#EF9F27"/>
  <circle cx="32" cy="32" r="15.5" fill="none" stroke="#BA7517" stroke-width="1.5"/>
  <!-- Bijtje -->
  <g transform="translate(31,34) rotate(-15)">
    <!-- Vleugels achter lijf -->
    <ellipse cx="-2" cy="-6.5" rx="5.2" ry="3.3" fill="#FFFFFF" fill-opacity="0.9" stroke="#BA7517" stroke-width="0.6" transform="rotate(-25)"/>
    <ellipse cx="3.5" cy="-6.5" rx="5.2" ry="3.3" fill="#FFFFFF" fill-opacity="0.9" stroke="#BA7517" stroke-width="0.6" transform="rotate(20)"/>
    <!-- Lijf -->
    <ellipse cx="0" cy="0" rx="9.5" ry="6.8" fill="#412402"/>
    <!-- Gele strepen -->
    <path d="M -2.5 -6.3 A 6.8 6.8 0 0 1 -2.5 6.3" stroke="#EF9F27" stroke-width="2.5" fill="none"/>
    <path d="M 2.5 -6.3 A 6.8 6.8 0 0 1 2.5 6.3" stroke="#EF9F27" stroke-width="2.5" fill="none"/>
    <!-- Kopje links -->
    <circle cx="-7.5" cy="0" r="3.4" fill="#412402"/>
    <circle cx="-7.8" cy="-0.6" r="1.2" fill="#FFFFFF"/>
    <!-- Voelsprieten -->
    <path d="M -9 -2.5 q -2 -2.5 -0.5 -4" stroke="#412402" stroke-width="1.1" fill="none" stroke-linecap="round"/>
    <path d="M -10 -1.5 q -3 -1.5 -3 -3.5" stroke="#412402" stroke-width="1.1" fill="none" stroke-linecap="round"/>
    <!-- Angel rechts -->
    <path d="M 9.5 0 l 3.5 0" stroke="#412402" stroke-width="1.6" stroke-linecap="round"/>
  </g>
</svg>
